<?xml version="1.0" encoding="UTF-8" standalone="no"?>
<!DOCTYPE svg PUBLIC "-//W3C//DTD SVG 1.1//EN" "http://www.w3.org/Graphics/SVG/1.1/DTD/svg11.dtd">
<svg version="1.1" xmlns="http://www.w3.org/2000/svg" xmlns:xlink="http://www.w3.org/1999/xlink" preserveAspectRatio="xMidYMid meet" viewBox="0 0 640 640" width="640" height="640"><defs><path d="M553.13 136.74C541.44 134.24 525.18 140.86 524.36 154.46C523.7 165.5 524.24 169.14 517.77 173.13C507.86 179.25 510.41 195.7 521.26 198.66C536.43 202.82 521.47 204.82 544.24 205.66C567 206.5 567.99 197.61 578.06 190.12C586.72 183.68 586.86 166.47 576.2 161.5C565.53 156.54 576.24 141.68 553.13 136.74" id="h59ahuBV0N"></path><path d="M588.77 281.23L574.91 282.1L578.6 363.9L582.45 363.86L588.77 281.23" id="bkm83EoGw"></path><path d="M524.95 281.23L511.09 282.1L514.78 363.9L518.63 363.86L524.95 281.23" id="b3xt5JREcl"></path><path d="M546.22 187.42C546.22 187.42 511.55 196.25 517.3 245.67C517.3 245.67 499.7 255.62 502.83 274.12C505.96 292.63 542.14 296.14 552.66 295.31C563.17 294.47 598.18 292.78 599.62 268.23C600.4 254.84 591.49 246.5 591.49 246.5C591.49 246.5 597.23 184.72 546.22 187.42" id="ehBuYxlRS"></path><path d="M534.83 238.09C534.83 238.09 506.01 249.51 509.66 268.03C513.3 286.55 535.43 285.48 552.44 284.85C569.45 284.21 590.7 283.09 592.5 266.26C594.3 249.42 578.97 235.25 534.83 238.09" id="aiNo6T0WR"></path><path d="M554.66 353.77C556.01 351.98 554.91 366.84 553.92 368.59C553.22 369.83 546.53 371.32 546.83 369.92C548.47 362.26 545.62 356.79 546.17 355.34C546.91 353.38 553.35 355.51 554.66 353.77" id="b2fDgE8CBt"></path><path d="M516.49 330.95C518.65 330.4 508.51 341.31 506.64 342.05C505.32 342.58 499.17 339.56 500.28 338.65C506.35 333.7 507.54 327.65 508.88 326.86C510.69 325.8 514.38 331.48 516.49 330.95" id="cSYAGYXMJ"></path><path d="M547.58 367.34C547.58 367.34 545.47 370.29 542.12 373.11C542.04 373.36 541.65 374.64 540.94 376.94L559.83 376.45C559.65 374.95 559.55 374.13 559.53 373.96C559.53 373.96 554.98 369.23 554.51 366.55C554.45 366.71 553.98 367.95 553.92 368.11C553.92 368.11 553.5 365.8 551.04 365.87C548.59 365.94 548.28 368.19 548.28 368.19C548.23 368.13 548 367.85 547.58 367.34" id="bqqwfczxO"></path><path d="M566.32 372.95L566.45 372.97L566.58 373L566.7 373.03L566.82 373.08L566.93 373.14L567.04 373.21L567.15 373.28L567.24 373.37L567.34 373.46L567.42 373.56L567.49 373.66L567.56 373.77L567.61 373.89L567.66 374.01L567.7 374.13L567.73 374.25L567.74 374.38L567.75 374.51L567.75 374.64L567.73 374.77L567.71 374.89L567.68 375.02L567.63 375.14L567.58 375.25L567.52 375.37L567.44 375.47L567.37 375.57L567.28 375.67L567.18 375.75L567.08 375.83L566.97 375.9L566.86 375.96L566.74 376.01L566.62 376.06L566.5 376.09L566.37 376.11L566.24 376.13L565.43 376.17L564.62 376.22L563.82 376.27L563.01 376.32L562.2 376.37L561.39 376.43L560.58 376.48L559.77 376.54L558.97 376.61L558.16 376.67L557.35 376.74L556.55 376.81L555.74 376.88L554.93 376.95L554.13 377.03L553.32 377.1L552.51 377.18L551.71 377.27L550.9 377.35L550.09 377.43L549.29 377.52L548.48 377.61L547.68 377.7L546.87 377.8L546.07 377.89L545.26 377.99L544.46 378.09L543.65 378.19L542.85 378.29L542.05 378.39L541.24 378.5L540.44 378.61L540.31 378.62L540.18 378.62L540.05 378.61L539.92 378.59L539.8 378.56L539.68 378.53L539.56 378.48L539.44 378.42L539.33 378.35L539.23 378.27L539.13 378.19L539.04 378.1L538.96 378L538.89 377.9L538.82 377.79L538.76 377.67L538.72 377.55L538.68 377.43L538.65 377.3L538.64 377.18L538.63 377.05L538.63 376.92L538.64 376.79L538.67 376.66L538.7 376.54L538.75 376.42L538.8 376.3L538.86 376.19L538.94 376.09L539.02 375.98L539.1 375.89L539.2 375.81L539.3 375.73L539.41 375.66L539.52 375.6L539.64 375.54L539.76 375.5L539.88 375.47L540.01 375.45L540.82 375.34L541.63 375.23L542.44 375.13L543.25 375.02L544.06 374.92L544.88 374.82L545.69 374.72L546.5 374.63L547.31 374.53L548.13 374.44L548.94 374.35L549.76 374.26L550.57 374.18L551.38 374.09L552.2 374.01L553.01 373.93L553.83 373.85L554.64 373.78L555.45 373.7L556.27 373.63L557.09 373.56L557.9 373.49L558.72 373.43L559.53 373.36L560.35 373.3L561.17 373.24L561.98 373.19L562.8 373.14L563.62 373.08L564.44 373.03L565.25 372.99L566.07 372.94L566.2 372.94L566.32 372.95" id="a6AxhShwU"></path><path d="M542.93 369.25L543.89 369.66L543.93 369.76L543.97 369.86L544 369.95L544.04 370.05L544.07 370.15L544.11 370.25L544.14 370.34L544.17 370.44L544.22 370.63L544.27 370.83L544.32 371.02L544.36 371.21L544.4 371.4L544.44 371.59L544.47 371.78L544.5 371.97L544.53 372.15L544.53 372.16L544.56 372.35L544.58 372.53L544.6 372.72L544.64 373.09L544.65 373.19L544.66 373.24L544.69 373.37L544.72 373.49L544.74 373.59L544.75 373.62L544.77 373.78L544.8 373.93L544.83 374.09L544.85 374.24L544.88 374.4L544.89 374.56L544.91 374.72L544.93 374.87L544.94 374.96L544.94 375.04L544.95 375.18L544.96 375.32L544.96 375.46L544.97 375.61L544.97 375.63L544.97 375.69L544.97 375.78L544.96 375.83L544.94 375.92L544.91 376.02L544.91 376.02L544.91 376.02L544.85 376.13L544.77 376.22L544.68 376.31L544.58 376.37L544.47 376.42L544.35 376.45L544.34 376.45L544.23 376.46L544.11 376.45L544 376.42L543.89 376.37L543.79 376.31L543.71 376.23L543.63 376.13L543.57 376.03L543.54 375.96L543.52 375.87L543.48 375.66L543.44 375.47L543.41 375.28L543.38 375.09L543.35 374.9L543.33 374.71L543.31 374.52L543.28 374.34L543.24 373.97L543.2 373.6L543.16 373.25L543.12 372.89L543.1 372.72L543.08 372.54L543.05 372.37L543.05 372.36L543.03 372.2L543 372.03L542.98 371.86L542.94 371.69L542.93 371.63L542.92 371.58L542.88 371.47L542.83 371.37L542.83 371.36L542.79 371.26L542.75 371.15L542.7 371.04L542.66 370.93L542.63 370.87L542.61 370.83L542.57 370.72L542.52 370.61L542.51 370.59L542.55 370.46L542.57 370.35L542.55 370.3L542.52 370.21L542.93 369.25" id="e5o8AvMjb"></path><path d="M503.12 336.74C503.12 336.74 499.49 336.57 495.31 335.31C495.05 335.38 493.76 335.74 491.45 336.4L502.16 351.97C503.31 351.01 503.95 350.47 504.08 350.37C504.08 350.37 505.56 343.97 507.56 342.12C507.39 342.15 506.09 342.44 505.93 342.47C505.93 342.47 507.63 340.87 506.24 338.84C504.84 336.82 502.79 337.79 502.79 337.79C502.81 337.72 502.92 337.37 503.12 336.74" id="a9TLI8KD3"></path><path d="M491.11 334.26L491.22 334.27L491.33 334.29L491.44 334.32L491.55 334.36L491.65 334.4L491.75 334.45L491.85 334.51L491.95 334.58L492.03 334.65L492.12 334.73L492.19 334.81L492.73 335.43L493.26 336.05L493.79 336.68L494.32 337.3L494.85 337.92L495.37 338.55L495.9 339.18L496.42 339.81L496.94 340.44L497.46 341.07L497.98 341.7L498.5 342.34L499.01 342.97L499.53 343.61L500.04 344.25L500.55 344.88L501.06 345.52L501.57 346.17L502.07 346.81L502.58 347.46L503.08 348.1L503.58 348.75L504.08 349.4L504.58 350.05L505.07 350.7L505.57 351.35L506.06 352L506.55 352.66L507.04 353.32L507.53 353.98L508.01 354.64L508.5 355.3L508.56 355.39L508.62 355.49L508.67 355.59L508.71 355.7L508.74 355.81L508.77 355.91L508.79 356.03L508.8 356.14L508.8 356.25L508.8 356.37L508.78 356.48L508.76 356.59L508.73 356.7L508.7 356.81L508.65 356.91L508.6 357.02L508.54 357.11L508.47 357.2L508.4 357.29L508.32 357.38L508.24 357.45L508.15 357.52L508.06 357.59L507.96 357.64L507.85 357.69L507.75 357.74L507.64 357.77L507.53 357.8L507.42 357.82L507.3 357.83L507.19 357.83L507.08 357.82L506.96 357.81L506.85 357.79L506.74 357.76L506.63 357.72L506.53 357.68L506.43 357.63L506.33 357.57L506.24 357.5L506.15 357.43L506.07 357.35L505.99 357.26L505.92 357.18L505.44 356.52L504.96 355.87L504.48 355.22L504 354.57L503.51 353.92L503.02 353.27L502.54 352.63L502.04 351.98L501.55 351.34L501.06 350.7L500.56 350.06L500.06 349.42L499.57 348.78L499.06 348.14L498.56 347.51L498.06 346.87L497.55 346.24L497.04 345.61L496.54 344.98L496.02 344.35L495.51 343.72L495 343.1L494.48 342.47L493.97 341.84L493.45 341.22L492.93 340.6L492.41 339.98L491.88 339.36L491.36 338.74L490.83 338.12L490.31 337.51L489.78 336.89L489.7 336.8L489.64 336.71L489.58 336.61L489.53 336.51L489.49 336.4L489.45 336.29L489.43 336.18L489.41 336.07L489.39 335.96L489.39 335.84L489.4 335.73L489.41 335.62L489.43 335.5L489.46 335.39L489.49 335.29L489.54 335.18L489.59 335.08L489.65 334.98L489.71 334.89L489.79 334.8L489.86 334.72L489.95 334.64L490.04 334.57L490.13 334.5L490.23 334.45L490.33 334.4L490.44 334.35L490.54 334.32L490.65 334.29L490.77 334.27L490.88 334.26L490.99 334.26L491.11 334.26" id="a1IwodR74E"></path><path d="M498.98 333.89L499.16 334.92L499.1 335L499.04 335.08L498.98 335.17L498.91 335.25L498.85 335.33L498.79 335.41L498.72 335.49L498.66 335.57L498.53 335.72L498.39 335.87L498.25 336.01L498.12 336.15L497.98 336.29L497.84 336.43L497.7 336.56L497.56 336.68L497.42 336.81L497.41 336.81L497.27 336.93L497.13 337.05L496.98 337.17L496.7 337.41L496.62 337.47L496.58 337.51L496.49 337.6L496.4 337.7L496.33 337.77L496.31 337.79L496.19 337.89L496.08 338L495.96 338.11L495.84 338.21L495.72 338.32L495.6 338.42L495.48 338.52L495.36 338.63L495.29 338.67L495.23 338.72L495.11 338.81L494.99 338.89L494.89 338.97L494.76 339.06L494.74 339.07L494.69 339.11L494.62 339.15L494.58 339.17L494.48 339.21L494.39 339.23L494.39 339.23L494.39 339.23L494.26 339.24L494.14 339.23L494.02 339.2L493.91 339.15L493.81 339.08L493.72 338.99L493.72 338.99L493.65 338.9L493.59 338.79L493.55 338.68L493.54 338.57L493.54 338.45L493.55 338.33L493.59 338.22L493.65 338.12L493.69 338.05L493.76 337.98L493.91 337.83L494.05 337.7L494.19 337.57L494.33 337.44L494.48 337.32L494.62 337.19L494.77 337.07L494.91 336.95L495.2 336.71L495.48 336.48L495.76 336.26L496.04 336.03L496.17 335.92L496.3 335.8L496.44 335.69L496.44 335.68L496.56 335.57L496.69 335.46L496.82 335.34L496.94 335.22L496.99 335.18L497.02 335.14L497.09 335.05L497.15 334.95L497.16 334.95L497.22 334.86L497.29 334.77L497.35 334.67L497.42 334.57L497.46 334.52L497.49 334.48L497.55 334.38L497.62 334.28L497.63 334.26L497.76 334.22L497.86 334.18L497.9 334.14L497.95 334.06L498.98 333.89" id="j1gajRTSVs"></path><path d="M553.35 254.15C549.29 252.94 538.22 259 530.49 272.58C522.76 286.17 505.62 331.15 505.62 331.15C506.55 331.5 513.99 334.3 514.91 334.65C514.91 334.65 546.72 297.29 554.86 279.88C563 262.47 557.41 255.37 553.35 254.15" id="k3YoCOgxTh"></path><path d="M549.49 267.16C545.35 268.09 538.69 278.82 538.63 294.44C538.58 310.07 545.76 357.66 545.76 357.66C546.74 357.51 554.58 356.3 555.57 356.15C555.57 356.15 564.91 307.98 563.44 288.82C561.98 269.65 553.62 266.22 549.49 267.16" id="anQJhfkXJ"></path><path d="M543.06 181.88C543.06 181.88 543.32 189.49 541.15 194.93C538.98 200.37 555.04 204.93 557.96 195.62C557.96 195.62 555.02 190.73 556.23 185.02C557.45 179.31 548.94 172.89 543.06 181.88" id="b5uctVMVrR"></path><path d="M542.28 191.02C542.28 191.02 534.57 198.1 524.3 201.27C524.47 203.99 525.36 217.61 526.95 242.13L573.68 244.35L580.46 213.1L557.56 193.74L542.28 191.02" id="a32MuAEi5f"></path><path d="M558.09 154.36C554.89 150.18 549.97 152.09 548.3 161.15C547.11 167.58 534.94 169.83 535.15 172.06C536.2 183.11 545.38 189.17 549.25 188.82C559.17 187.92 565.06 168.79 563.29 167.09C559.53 163.47 560.75 157.83 558.09 154.36" id="a4iCZvfP"></path><path d="M510.61 191.27L589.68 191.27L589.68 242.44L510.61 242.44L510.61 191.27" id="atAuCMlKm"></path><path d="M549.5 211.09C554.1 211.09 557.82 214.81 557.82 219.4C557.82 223.99 554.1 227.71 549.5 227.71C544.91 227.71 541.19 223.99 541.19 219.4C541.19 214.81 544.91 211.09 549.5 211.09" id="a3oOYFQ05n"></path><path d="M409.05 281.23L395.19 282.1L398.87 363.9L402.73 363.86L409.05 281.23" id="g11KhI87WR"></path><path d="M427.11 277.35L413.2 282.1L416.88 363.9L420.74 363.86L427.11 277.35" id="b1pCICxT9v"></path><path d="M360.11 281.23L346.25 282.1L349.94 363.9L353.79 363.86L360.11 281.23" id="b1n3zdeC8o"></path><path d="M399.57 180.56C399.57 180.56 426.47 179.21 431.38 190.38C436.3 201.55 432.7 259.74 428.52 276.53C426.37 285.13 416.71 288.93 406.27 291.11C395.83 293.3 347.86 289.61 347.86 289.61C347.86 289.61 334.46 283.51 344.6 275.61C347.5 272.95 362.02 259.65 388.14 235.71L399.57 180.56" id="a27gSrrfH2"></path><path d="M412.75 241.96C412.75 241.96 414.5 207.05 414.81 204.52C416.05 194.71 416.81 186.01 412.16 181.78C409.57 179.42 406.42 176.28 402.3 174.44C400.1 173.46 390.02 173.5 384.41 176.88C380.67 179.14 377.63 189.77 376.14 196.84C374.27 205.76 373.16 230.42 373.16 230.42C376.44 239.98 407.2 247.65 412.75 241.96" id="a1hKTICG8h"></path><path d="M384.54 176.65C384.54 176.65 380.41 183.74 386.44 185.99C400.82 191.35 402.52 173.96 402.52 173.96C405.94 174.88 415.96 179.54 417.07 185.78C419.76 201 418.66 265.29 418.66 265.29C413.18 264.98 369.3 262.49 363.82 262.17C363.82 262.17 366.81 215.05 368.78 201.04C372.03 178.01 384.54 176.65 384.54 176.65" id="biU3QwFs"></path><path d="M398.69 168.33C402.13 170.43 405.98 159.92 407.55 156.86C409.12 153.8 410.11 149.98 407.96 146.55C407.51 145.85 406.94 145.16 406.77 144.41C406.59 143.6 406.93 142.86 407.19 142.15C408.86 137.59 405.73 132.15 402.33 127.48C401.53 126.38 400.57 125.31 399.31 124.61C397.82 123.79 396.1 123.6 394.5 123.61C383.67 123.65 377.84 130.8 367.06 131.04C363.9 131.11 360.64 130.56 357.48 130.61C354.32 130.65 351.11 131.42 349.51 133.58C347.91 135.74 348.68 139.55 351.66 141.13C353.57 142.15 355.76 142 357.75 141.82C355.02 144.25 356.14 149.13 359.4 152.12C362.65 155.1 367.36 156.4 371.59 156.46C374.75 156.5 377.87 155.97 381.06 156.77C386.54 158.15 393.78 165.33 398.69 168.33" id="baybP557v"></path><path d="M391.73 184.43C400.68 183.15 401.98 174.56 401.98 174.56C401.67 173.29 399.24 163.06 398.93 161.79C398.46 158.04 394.19 156.05 389.78 157.24C385.38 158.43 384.22 163.35 384.69 167.1C384.76 168.47 385.31 179.5 385.38 180.87C385.85 184.62 389.35 184.77 391.73 184.43" id="b5xc06U5fj"></path><path d="M379.27 177.09C386.8 183.87 395.51 172.53 398.69 168.33C403.43 162.08 405.96 137.09 393.72 132.02C381.48 126.94 367.64 136.21 364.28 143.16C360.93 150.11 373.98 172.33 379.27 177.09" id="e76fmxgtW"></path><path d="M395.09 153.25C394.55 156.62 395.6 159.46 397.26 159.64C402.79 160.23 405.38 158.8 405.92 155.43C406.46 152.06 404.38 149.82 401.39 149.22C398.4 148.62 395.64 149.88 395.09 153.25" id="b126QrKXMX"></path><path d="M362.81 141.61C364.35 137.97 368.05 135.24 371.9 133.53C375.4 131.98 379.21 130.88 382.98 129.9C386.55 128.97 390.48 128.1 394.31 128.33C401.55 128.75 403.16 137.07 403.07 142.33C403.02 145.03 405.54 147.05 403.64 149.1C402.83 149.98 400.79 150.3 399.5 150.46C397.95 150.66 402.39 158.61 399.28 159.99C398.92 160.15 395.14 158.05 392.59 153.71C390.73 150.54 390.57 146.11 389.7 144.08C389.27 143.05 388.15 141.3 387.37 141.5C386.13 141.28 385.23 142.15 384.48 142.87C383.64 143.68 383 144.71 382.23 145.59C380.9 147.12 379.42 148.55 377.7 149.72C374.73 151.73 370.01 153.36 366.15 151.63C364.09 150.7 362.99 149.18 362.47 147.46C362.35 147.37 362.26 147.25 362.23 147.09C362.1 146.37 362.04 145.67 362.06 145C362.01 143.89 362.1 142.77 362.25 141.74C362.29 141.49 362.63 141.47 362.81 141.61C362.73 141.79 362.66 141.97 362.6 142.16C362.6 142.36 362.67 143.94 362.68 144.14C362.56 145.01 362.57 145.9 362.74 146.8C362.75 146.85 362.76 146.9 362.78 146.95C362.78 146.95 362.78 146.97 362.8 147.01C362.8 147.07 362.8 147.1 362.8 147.11C362.78 147 362.76 146.9 362.74 146.8C362.34 145.31 362.41 143.81 362.54 142.32C362.26 143.17 362.09 144.06 362.06 145C362.1 145.83 362.23 146.67 362.47 147.46C362.62 147.57 362.83 147.62 363 147.6C362.92 147.4 362.85 147.2 362.8 147.01C362.78 146.72 362.69 144.43 362.68 144.14C362.73 143.79 362.8 143.44 362.89 143.09C362.89 142.67 362.91 142.24 362.92 141.83C362.92 141.74 362.88 141.66 362.81 141.61" id="b17xaNJfrj"></path><path d="M324.34 280.96C362.8 280.33 384.16 279.98 388.43 279.91C388.43 279.91 400.24 279.23 408.56 275.37C415.4 272.19 418.74 265.3 418.74 265.3C418.61 265.03 418 263.68 416.9 261.25L378.84 246.63L322.74 250.24L324.34 280.96" id="ff39Ntyfu"></path><path d="M387.64 353.77C388.98 351.98 387.89 366.84 386.9 368.59C386.2 369.83 379.51 371.32 379.81 369.92C381.45 362.26 378.59 356.79 379.15 355.34C379.89 353.38 386.32 355.51 387.64 353.77" id="boIAbpvE0"></path><path d="M325.29 353.77C326.64 351.98 325.54 366.84 324.55 368.59C323.85 369.83 317.16 371.32 317.47 369.92C319.1 362.26 316.25 356.79 316.8 355.34C317.55 353.38 323.98 355.51 325.29 353.77" id="a402AWnOrh"></path><path d="M382.42 366.77C382.57 366.19 383.56 362.78 380.34 365.46C378.69 366.83 373.05 369.84 365.78 368.62C362.41 368.06 361.82 368.12 359.98 369.2C358.71 369.96 359.27 371.41 358.85 372.39C379.53 375.31 388.47 371.31 389.45 370.73C389.22 367.63 387.83 367.79 388.41 366.42C387.97 365.63 383.87 366.3 382.42 366.77" id="eRoRwdFgt"></path><path d="M320.07 366.77C320.23 366.19 321.22 362.78 317.99 365.46C316.35 366.83 310.71 369.84 303.43 368.62C300.06 368.06 299.47 368.12 297.64 369.2C296.36 369.96 296.93 371.41 296.5 372.39C317.19 375.31 326.12 371.31 327.11 370.73C326.87 367.63 325.49 367.79 326.06 366.42C325.62 365.63 321.53 366.3 320.07 366.77" id="ibv7w6jPzX"></path><path d="M382.52 247.79C377.86 248.68 370.22 267.32 372.26 285.15C374.04 300.71 377.1 362.44 377.1 362.44C378.51 362.38 389.81 361.91 391.22 361.85C391.22 361.85 399.65 293.64 400.24 279.81C400.84 265.98 387.19 246.9 382.52 247.79" id="f1RqS3ZJWz"></path><path d="M321.13 247.79C316.46 248.68 308.82 267.32 310.86 285.15C312.64 300.71 315.57 362.99 315.57 362.99C316.77 362.95 326.39 362.68 327.6 362.64C327.6 362.64 338.26 293.64 338.85 279.81C339.44 265.98 325.79 246.9 321.13 247.79" id="cnbLQ2ZQy"></path><path d="M408.93 179.88C412.43 179.93 423.66 177.51 426.04 202.75C427.13 214.37 425.22 233.66 416.61 243.42C407.13 254.17 405.4 245.25 406.86 233.62C407.77 226.37 407.03 218.32 405.05 202.46C403.48 189.83 405.44 179.83 408.93 179.88" id="c413m2z7Fq"></path><path d="M417.74 250.52C419.41 248.74 426.06 244.27 414.42 231.07C409.06 225 398.36 216.79 389.26 216.46C379.22 216.09 382.9 221.2 389.5 226C393.62 228.99 397.34 233.19 404.42 241.73C410.06 248.52 416.08 252.3 417.74 250.52" id="j3AhoDwz3"></path><path d="M403.1 221.11C403.1 221.11 405.96 206.47 402.49 188.94C401.05 181.64 407.05 174.82 415.65 178.72C431.55 185.95 426.49 219.61 426.3 219.63C421.29 225.4 403.1 221.11 403.1 221.11" id="g3GlmB1pvj"></path><path d="M343.81 238.71L401.93 238.71L401.93 243.94L343.81 243.94L343.81 238.71" id="dpI5a66Tt"></path><path d="M371.09 242.9L364.33 185L295.07 189.44L305.82 242.91L371.09 242.9" id="f3PcgjsXjH"></path><path d="M367.26 243.33L360.51 185.43L291.25 189.86L302 243.33L367.26 243.33" id="c3HVuZ013"></path><path d="M327.2 208.46C330.56 207.13 334.48 209.26 335.97 213.22C337.45 217.19 335.94 221.48 332.58 222.81C329.23 224.14 325.31 222.01 323.82 218.05C322.33 214.08 323.85 209.79 327.2 208.46" id="cQ4B1LLHC"></path><path d="M262.83 167.21C262.71 161.38 224.01 147.75 223.31 155.79C221.82 172.95 226.65 208.07 227.13 217.43C227.68 227.92 230.45 238.89 230.21 249.29C229.89 263.12 228.07 310.28 222.87 337.99C220.95 348.2 203.51 363.8 206.63 364.38C208.63 364.75 222.61 360.13 228.53 351.88C229.79 350.13 229.27 364.48 230.25 362.94C231.08 361.64 233.47 344.4 234 343.39C235.55 340.46 233.42 335.15 235.17 328.87C239.55 313.14 248.64 290.52 250.26 279.33C251.58 270.24 246.89 252.74 247.1 251.83C249.91 239.87 256.72 222.97 259.99 210.28C264.42 193.13 263.15 181.51 262.83 167.21" id="dWsvfEaTV"></path><path d="M202.7 366.05C202.7 366.05 210.01 343.01 212.99 349.88C215.79 356.36 229.91 344.09 234.47 338.45C234.47 338.45 235.67 335.28 237.88 336.86C237.55 338.79 235.9 348.42 232.94 365.75L202.7 366.05" id="a7Z0RhCnY"></path><path d="M273.19 106.33C273.42 106.67 273.66 107 273.91 107.33C279.16 114.32 286.75 115.23 286.69 115.87C286.27 120.55 281.8 129.14 281.27 129.13C280.5 129.12 279.11 128.19 276.2 125.65C273.87 123.63 272.16 121.4 271.96 121.35C271.42 121.2 273.76 125 276.28 127.86C278.14 129.99 280.31 131.39 280.31 131.39C280.31 131.39 278.88 134.88 277.68 136.32C276.15 138.17 273.59 140.68 271.13 142.46C270.31 143.05 256.48 146.3 249.03 146.8C227.91 148.2 221.53 140.12 221.53 140.12C221.53 140.12 213.85 122.81 215.38 93.2C215.56 89.74 215.76 84.4 216.94 80.95C220.27 71.15 218.64 50.83 240.1 47.28C254.2 44.95 268.58 54.93 269.61 69.95C271.89 103.23 291.1 102.6 291.1 102.6C290.82 103.4 288.61 109.76 288.34 110.55C288.34 110.55 284.21 110.35 282.39 109.53C279.61 108.28 277.14 106.46 274.82 104.5C275.6 105.45 276.31 106.27 276.86 106.81C279.8 109.64 283.44 112.21 287.3 112.54C287.34 112.57 287.65 112.87 287.69 112.91C287.69 112.91 280.02 113.14 274.76 108.09C274.22 107.58 273.7 106.99 273.19 106.33" id="b110xL8UXT"></path><path d="M210.7 157.24C208.33 168.47 217.47 169.16 221.48 162.25C237.86 134.06 235.75 132.72 241.77 122.63C257.31 96.62 234.29 96.62 225.33 111.49C220.42 119.63 214.47 139.38 210.7 157.24" id="a6pcKtSo24"></path><path d="M252.39 91.09C251.12 93.34 242.05 92.69 237.07 90.79C234.11 89.66 231.67 85.36 230.64 80.37C228.16 68.33 228.02 59.4 237.01 56.58C237.01 56.58 249.54 50.98 254.84 60.28C259.66 68.71 258.64 75.24 256.14 80.89C255.47 82.37 253.18 89.67 252.39 91.09" id="a4xTQPpCNj"></path><path d="M232.39 51.82C231.54 52.49 231.5 62.5 240.81 68.66C253.63 77.14 254.71 88.93 254.71 88.93C254.71 88.93 268.73 80.77 266.15 69.13C262.04 50.58 240.07 45.76 232.39 51.82" id="cDC440hjH"></path><path d="M254.64 93.61C254.61 92.29 254.61 86.03 253.48 84.68C249.78 80.22 241.8 78.45 242.1 83.96C242.39 88.71 241.79 96.64 241.48 100.88C241.28 103.72 238.67 105.99 240.27 109.37C242.53 114.14 255.09 114.93 254.64 93.61" id="c525rFAjvP"></path><path d="M236.21 179.59C227.71 178.08 222.43 170.24 223.26 148.23C223.85 132.7 225.85 119.19 237.01 107.02C239.46 104.34 243.62 101.09 247.4 100.22C252.31 99.09 256.89 100.83 259.53 101.2C263.39 101.72 263.91 110.4 265.44 116.58C265.58 117.15 269.46 125.68 269.25 126.26C266.57 133.53 264.19 143.75 256.54 158.11C253.26 164.26 242.69 180.75 236.21 179.59" id="b23D2dQ2yl"></path><path d="M233.9 181.54C233.9 181.54 252.4 238.71 254.5 250.44C255.63 256.74 258.35 263.14 258.68 269.57C259.52 286.36 260.7 333.33 259.63 344.65C259.57 345.26 256.74 355.4 257.18 362.24C257.58 368.57 259.42 369.71 259.84 370.32C264.01 376.35 266.74 370.67 267.35 361.21C267.79 354.39 266.34 343.55 266.71 342.03C268.92 333.02 278.09 306.34 279.3 300.64C282.37 286.22 277.86 271.73 272.7 259.03C271.67 256.49 277.11 235.27 278.57 212.43C279.83 192.74 279.23 166.89 255.66 153.31C254.58 152.69 223.05 158.65 223.05 158.65C223.05 158.65 224.68 167.78 233.9 181.54" id="b1ickLXez"></path><path d="M263.67 374.74C256.99 374.63 255.96 364.26 256.12 360.86C256.12 360.86 255.51 344.75 257.21 344.97C259.34 345.26 258.45 351.71 258.67 355.02C259.03 360.57 260.36 365.09 262.74 365.02C267.93 364.86 265.63 351.8 266.34 345C266.34 345 268.92 340.82 269.4 346.86C269.87 352.71 270.26 374.84 263.67 374.74" id="c201KsafYI"></path><path d="M258.31 100.94C258.31 100.94 255.17 127.16 262.1 136C271.44 147.93 282.72 156.94 284.5 156.57C299.25 153.5 303.3 117.79 305.44 105.27C305.73 103.57 302.81 93.5 299.12 104.87C295.29 116.62 284.08 139.65 284.08 139.65C284.08 139.65 268.44 100.73 258.31 100.94" id="d3zA15X78c"></path><path d="M305.14 104.41C305.14 104.41 318.82 101.59 328.79 99.7C328.79 99.7 330.93 98.81 327.03 98.99C323.13 99.17 318.02 99.62 318.02 99.62C318.02 99.62 327.54 97.08 330.55 96.38C333.57 95.67 325.89 95.25 318.35 97.61C318.35 97.61 327.33 94.79 330.57 93.45C332.55 92.63 326.58 92.76 317.81 95.64C317.81 95.64 324.46 93 327.98 91.09C329.98 90 329.74 88.32 316.88 93.86C315.57 94.42 314.45 95.12 312.81 95.16C312.81 95.16 315.52 93.38 315.31 90.69C315.31 90.69 314.42 90.15 313.55 91.36C312.79 92.41 311.26 93.86 308.34 94.88C305.42 95.89 302.42 95.87 301.27 99.35C298.41 107.99 305.14 104.41 305.14 104.41" id="d8NNaBLUm"></path><path d="M237.92 101.29C237.92 101.29 224.28 115.69 222.23 164.86C220.09 216.09 222.65 275.52 222.65 275.52C228.8 275.95 278.01 279.36 284.16 279.79C284.16 279.79 297.1 184.37 261.96 155.42C262.35 153.88 265.42 141.56 265.8 140.02C265.8 140.02 251.63 124.07 258.56 100.34C258.15 100.32 254.84 100.11 254.43 100.08C254.43 100.08 250.84 115.7 241.71 116.22C232.57 116.74 241.38 101.36 241.38 101.36C241.15 101.35 239.99 101.33 237.92 101.29" id="bekguKRrk"></path><path d="M215.74 106.5L257.36 95.86L273.23 157.93L231.61 168.57L215.74 106.5" id="d81kx1rfv"></path><path d="M237.33 127.31C237.33 127.31 218.44 144.8 213.59 150.56C207.12 158.25 211.48 169.28 215.47 168.31C223.01 166.48 237.77 149.08 245.21 132.55C253 115.22 237.33 127.31 237.33 127.31" id="a23GMYvVcN"></path><path d="M244.9 132.73C244.9 132.73 252.21 120.65 258.89 112.38C258.89 112.38 259.95 110.22 256.93 113.01C253.92 115.8 250.11 119.62 250.11 119.62C250.11 119.62 255.93 111.14 257.85 108.53C259.77 105.92 253.25 110.79 248.9 117.79C248.9 117.79 254.07 109.45 255.71 106.18C256.71 104.19 251.96 108.33 247 116.59C247 116.59 250.43 109.97 251.86 106.05C252.68 103.83 251.24 102.65 244.93 115.8C244.29 117.13 243.9 118.44 242.6 119.59C242.6 119.59 243.47 116.33 241.32 114.33C241.32 114.33 240.2 114.5 240.38 116.06C240.55 117.41 240.39 119.61 238.77 122.4C237.16 125.19 236.65 126.95 236.36 130.76C236.07 134.57 244.9 132.73 244.9 132.73" id="a3D7YNqS9k"></path><path d="M480.28 218.77C474.06 206.13 480.7 197.95 489.65 193.23C492.77 191.58 500.53 187.03 496.15 181.53C494.43 179.36 490.41 181.15 489.43 181.74C485.23 184.23 484.04 188.66 480.75 191.84C479.56 192.99 477.41 195.26 475.69 191.82C473.87 188.19 475.82 185.11 477.2 182.67C480.59 176.67 486.96 173.26 489.04 166.31C489.74 163.95 490.52 161.22 489.86 158.36C489.74 157.87 489.21 155.72 488.46 155.45C485.83 154.48 483.3 156.62 482.11 157.79C478.28 161.57 476.97 167.25 475.59 172.55C475.25 173.83 474.76 180.59 472 177.54C468.04 173.17 468.3 168 469.03 164.09C470.72 155.08 476.93 148.18 479.84 139.72C480.92 136.57 482.37 133.27 481.92 129.47C481.82 128.64 481.22 126.15 480.05 125.54C477.45 124.19 475.05 127.17 474.14 128.32C470.43 133.02 470.44 139.92 468.4 145.56C467.86 147.05 466.87 152.87 463.47 150.64C458.97 147.7 457.74 141.71 456.97 138.01C454.84 127.79 454.78 117.66 453.57 107.6C453.08 103.52 451.65 94.7 445.43 91.89C443.25 90.9 441.95 92.87 441.43 94.11C440.01 97.53 441.13 102.65 441.78 106.77C443.85 119.88 449.36 132.51 456.09 145.71C458.33 150.12 460.52 154.51 462.12 158.95C462.46 159.89 463.91 162.64 463.57 163.57C463.5 163.77 461.58 162.92 461.46 162.86C458.95 161.73 456.88 159.72 455.09 157.72C449.66 151.67 446.29 144.73 441.01 138.6C439.26 136.57 435.68 133.12 433.29 134.38C429.8 136.21 431.94 142.61 433.79 146.34C439.07 156.99 450.47 163.66 459.13 172.4C462.13 175.43 464.78 178.77 466.79 182.21C466.97 182.51 468.75 185.44 468.31 185.63C466.63 186.32 462.88 183.77 461.26 182.63C455.22 178.39 450.45 172.47 444.9 167.7C443.75 166.71 439.38 162.38 437.66 162.77C433.32 163.74 438.06 170.8 440.35 173.57C446.35 180.79 453.18 184.66 461.37 189C464.17 190.49 470.52 193.41 471.14 196.76C471.39 198.12 465.27 195.7 464.89 195.54C459.2 193.08 453.78 189.5 448.04 187.16C446.76 186.64 442.97 184.85 442.6 186.46C441.91 189.48 447.86 193.37 450.57 194.89C459.08 199.65 468.95 201.41 474.51 210.06C474.89 210.65 476.82 213.55 480.28 218.77" id="acNzM2DaE"></path><path d="M486.23 102.27C489.62 92.2 483.13 89.6 482.67 93.92C482.24 97.89 485.49 101.72 486.08 102.38C486.01 102.43 485.94 102.51 485.9 102.61C485.56 103.29 485.09 104.26 485.09 104.26C484.68 105.27 484.29 106.28 483.92 107.29C483.23 105.77 480.64 100.57 477.08 99.11C472.93 97.4 473.56 106.36 483.78 107.68C482.92 110.09 482.17 112.54 481.5 114.99C480.27 112.45 477.46 107.28 474.13 105.53C469.79 103.23 471.1 113.67 481.18 116.23C481.05 116.73 480.92 117.23 480.79 117.73C480.79 117.75 480.74 117.95 480.73 117.98C480.29 119.85 479.88 121.72 479.49 123.6C477.35 121.72 471.2 116.64 466.51 116.03C460.89 115.31 467.65 125.74 479.32 124.42C478.77 127.14 478.28 129.86 477.86 132.59C475 130.49 467.08 125.02 461.83 124.5C455.54 123.86 465.35 135.29 477.7 133.61C477.26 136.56 476.9 139.52 476.62 142.47C473.03 141.11 462.5 137.44 457.15 138.96C450.91 140.73 465.62 150.67 476.5 143.9C476.27 146.63 476.12 149.35 476.06 152.06C476.03 153.41 476.02 154.76 476.04 156.1C472.54 154.36 464.62 150.91 458.86 152.11C451.56 153.63 461.38 164.35 476.07 157.88C476.18 161.69 476.48 165.47 476.95 169.19C474.13 168.57 466.11 167.29 459.67 170.94C451.86 175.37 460.46 183.82 477.09 170.2C477.52 173.4 478.09 176.54 478.78 179.61C476.12 180.09 467.33 182.09 462.04 188.08C455.86 195.08 467.25 199.09 478.97 180.45C479.76 183.86 480.7 187.17 481.78 190.36C481.78 190.36 481.78 190.55 482.47 190.83C482.49 190.75 482.72 190.06 482.75 189.97C482.1 187.49 481.54 184.97 481.05 182.42C481.05 182.42 480.23 178.59 479.73 175.45C479.51 174.07 479.32 172.68 479.14 171.28C494.47 181.14 503.69 170.96 496.27 168.14C490.11 165.8 481.9 168.77 478.99 169.98C478.52 165.81 478.26 161.57 478.18 157.34C489.51 167.52 504.27 159.01 497.82 155.99C492.05 153.29 480.82 155.95 478.16 156.64C478.11 153.17 478.18 149.71 478.34 146.29C485.97 154.36 503.56 148.26 498.49 145.28C494.08 142.69 482.47 143.91 478.44 144.43C478.55 142.69 478.68 140.96 478.83 139.25C490.05 142.52 503.67 133.25 497.4 132.86C492.23 132.53 482.74 136.36 478.95 138C479.27 134.7 479.68 131.48 480.16 128.36C480.16 128.36 480.16 128.35 480.16 128.35C490.71 131.46 501.22 122.89 495.59 122.55C491.02 122.28 483.45 125.71 480.34 127.24C480.63 125.37 480.95 123.5 481.29 121.64C481.41 121 481.53 120.37 481.65 119.73C491.64 122.76 499.57 114.79 494.49 114.5C490.38 114.26 484.24 117.47 481.83 118.84C482.42 115.89 483.09 112.94 483.92 110.03C493.46 113.01 499.19 105.58 494.62 105.33C490.85 105.12 485.86 108.22 484.09 109.41C484.58 107.75 485.11 106.1 485.72 104.46C485.76 104.3 485.81 104.14 485.86 103.99C486.01 103.5 486.17 103.02 486.34 102.54C486.34 102.54 486.34 102.52 486.33 102.52C495.7 103.27 498.12 95.5 494.11 96.26C490.46 96.94 486.93 101.49 486.29 102.36C486.28 102.35 486.26 102.27 486.26 102.26C486.26 102.26 486.25 102.27 486.23 102.27" id="ami0TxfPj"></path><path d="M505.73 124.52C509.9 126.78 513.56 149.46 505.33 180.81C500.84 197.91 484.94 222.49 478.91 219.94C474.67 218.14 471.55 199.04 480.3 167.25C484.89 150.58 501.56 122.26 505.73 124.52" id="b1PWluY8iR"></path><path d="M464.45 209.3L490.73 209.3L490.73 243.01L464.45 243.01L464.45 209.3" id="b1HP7o5XzF"></path><path d="M35.71 243.04L636.71 243.04L636.71 251.19L35.71 251.19L35.71 243.04" id="g2FEFdQB4W"></path><path d="M159.83 244.48C159.83 244.48 161.57 209.58 161.89 207.04C163.12 197.24 163.88 188.53 159.23 184.31C156.64 181.95 153.49 178.81 149.37 176.97C147.18 175.99 137.09 176.03 131.48 179.41C127.74 181.66 124.7 192.29 123.22 199.36C121.34 208.29 120.23 232.95 120.23 232.95C123.51 242.51 154.28 250.18 159.83 244.48" id="a7E6gJTEH2"></path><path d="M131.61 179.17C131.61 179.17 127.48 186.26 133.52 188.51C147.9 193.88 149.6 176.49 149.6 176.49C153.01 177.4 163.04 182.06 164.14 188.31C166.83 203.53 165.74 267.82 165.74 267.82C160.25 267.51 116.38 265.01 110.89 264.7C110.89 264.7 113.88 217.57 115.86 203.57C119.1 180.54 131.61 179.17 131.61 179.17" id="a47qUCJVSp"></path><path d="M144.23 171.89C146.92 174.89 153.62 165.92 156 163.43C158.38 160.94 160.42 157.57 159.34 153.67C159.11 152.87 158.76 152.04 158.81 151.28C158.87 150.45 159.4 149.84 159.86 149.23C162.76 145.34 161.31 139.23 159.39 133.78C158.94 132.5 158.33 131.2 157.33 130.17C156.13 128.96 154.54 128.29 153 127.84C142.61 124.78 134.97 129.96 124.57 127.12C121.53 126.29 118.56 124.82 115.52 123.96C112.48 123.11 109.19 122.92 107.03 124.53C104.88 126.15 104.53 130.02 106.93 132.38C108.48 133.9 110.61 134.39 112.57 134.79C109.26 136.33 108.95 141.33 111.21 145.12C113.48 148.92 117.62 151.5 121.66 152.77C124.67 153.71 127.81 154.09 130.64 155.77C135.5 158.66 140.38 167.61 144.23 171.89" id="b3BGa5yhcL"></path><path d="M138.81 186.95C147.75 185.67 149.05 177.09 149.05 177.09C148.75 175.81 146.31 165.59 146.01 164.31C145.54 160.57 141.26 158.57 136.86 159.76C132.45 160.95 131.3 165.88 131.77 169.62C131.84 171 132.38 182.02 132.45 183.4C132.92 187.14 136.42 187.29 138.81 186.95" id="j98QMKwLF"></path><path d="M116.73 143.17C116.73 143.17 117.59 162.29 122.55 168.11C122.55 168.11 126.23 174.65 137.44 177.12C137.44 177.12 151.15 148.94 139.2 145.58C112.77 138.15 116.73 143.17 116.73 143.17" id="epqTYQQ4h"></path><path d="M123.87 164.19C126.95 171.8 130.59 174.75 135.78 175.4C140.37 175.98 144.82 173.41 146.81 171.95C153.14 167.31 160.12 144.03 149.84 135.67C139.56 127.3 123.66 132.23 118.46 137.93C113.25 143.63 121.21 157.59 123.87 164.19" id="h15JLjyb8T"></path><path d="M117.48 136.03C120 132.98 124.32 131.42 128.5 130.88C132.3 130.4 136.27 130.43 140.16 130.57C143.85 130.7 147.86 130.99 151.47 132.3C158.28 134.78 157.45 143.21 155.86 148.22C155.04 150.79 156.88 153.45 154.47 154.88C153.44 155.49 151.4 155.21 150.12 155C148.58 154.75 150.56 163.64 147.19 164.06C146.79 164.11 143.76 161.02 142.56 156.13C141.69 152.57 142.81 148.28 142.55 146.08C142.43 144.97 141.86 142.98 141.05 142.94C139.92 142.37 138.82 142.96 137.9 143.43C136.85 143.97 135.94 144.77 134.96 145.4C133.24 146.48 131.42 147.42 129.43 148.05C126.02 149.13 121.03 149.34 117.83 146.58C116.12 145.11 115.5 143.34 115.49 141.54C115.4 141.42 115.35 141.28 115.37 141.12C115.44 140.39 115.59 139.7 115.8 139.06C116.07 137.98 116.48 136.94 116.91 135.99C117.02 135.76 117.35 135.84 117.48 136.03C117.36 136.18 117.24 136.33 117.12 136.49C117.08 136.68 116.68 138.23 116.63 138.42C116.27 139.22 116.03 140.07 115.93 140.98C115.93 141.03 115.93 141.08 115.93 141.13C115.93 141.14 115.93 141.16 115.93 141.2C115.91 141.25 115.91 141.29 115.9 141.29C115.91 141.19 115.92 141.09 115.93 140.98C115.97 139.44 116.48 138.02 117.02 136.64C116.51 137.37 116.1 138.17 115.8 139.06C115.6 139.88 115.48 140.71 115.49 141.54C115.6 141.69 115.78 141.79 115.96 141.82C115.94 141.61 115.93 141.4 115.93 141.2C116 140.92 116.56 138.7 116.63 138.42C116.78 138.09 116.95 137.78 117.14 137.47C117.26 137.07 117.4 136.67 117.53 136.27C117.56 136.18 117.53 136.1 117.48 136.03" id="aXUN2dKgz"></path><path d="M71.42 283.48C109.87 282.85 131.23 282.5 135.51 282.43C135.51 282.43 147.32 281.76 155.63 277.89C162.48 274.71 165.81 267.83 165.81 267.83C165.69 267.56 165.07 266.21 163.97 263.78L125.91 249.15L69.81 252.77L71.42 283.48" id="aAgS54XCv"></path><path d="M134.71 356.3C136.06 354.51 134.96 369.37 133.97 371.12C133.27 372.36 126.58 373.84 126.88 372.44C128.52 364.78 125.67 359.32 126.22 357.86C126.96 355.9 133.4 358.03 134.71 356.3" id="f4RK9QFhdq"></path><path d="M72.36 356.3C73.71 354.51 72.62 369.37 71.63 371.12C70.93 372.36 64.24 373.84 64.54 372.44C66.18 364.78 63.32 359.32 63.88 357.86C64.62 355.9 71.05 358.03 72.36 356.3" id="a4IivTuOw"></path><path d="M129.49 369.29C129.65 368.71 130.64 365.31 127.41 367.99C125.77 369.36 120.13 372.36 112.85 371.15C109.48 370.59 108.89 370.65 107.06 371.73C105.78 372.48 106.35 373.94 105.92 374.92C126.61 377.83 135.54 373.84 136.53 373.25C136.29 370.16 134.91 370.32 135.48 368.94C135.04 368.15 130.95 368.83 129.49 369.29" id="d2BJTAiOtS"></path><path d="M67.14 369.29C67.3 368.71 68.29 365.31 65.07 367.99C63.42 369.36 57.78 372.36 50.51 371.15C47.14 370.59 46.55 370.65 44.71 371.73C43.44 372.48 44 373.94 43.58 374.92C64.26 377.83 73.19 373.84 74.18 373.25C73.95 370.16 72.56 370.32 73.14 368.94C72.7 368.15 68.6 368.83 67.14 369.29" id="bpfGl3ygE"></path><path d="M121.34 243.05L116.87 190.51L45.33 189.58L56.08 243.05L121.34 243.05" id="b3KrPabkM"></path><path d="M126.97 242.95L121.67 190.65L50.96 189.48L61.71 242.95L100.26 242.95L126.97 242.95" id="f2eHfoJCh5"></path><path d="M123.49 236.55L117.71 196.85L58.47 194.79L66.17 236.39L123.49 236.55" id="kluUEybS"></path><path d="M129.6 250.31C124.93 251.2 117.29 269.85 119.33 287.68C121.11 303.23 124.17 364.97 124.17 364.97C125.59 364.91 136.88 364.44 138.3 364.38C138.3 364.38 146.73 296.17 147.32 282.34C147.91 268.5 134.26 249.42 129.6 250.31" id="d32YfGmpt7"></path><path d="M70.02 252.58C65.36 253.47 55.9 269.85 57.94 287.68C59.72 303.23 62.64 365.51 62.64 365.51C63.85 365.48 73.47 365.2 74.67 365.17C74.67 365.17 85.33 296.17 85.92 282.34C86.52 268.5 74.69 251.69 70.02 252.58" id="b5yP3D4g4"></path><path d="M156.01 182.4C159.51 182.45 170.74 180.04 173.11 205.28C174.2 216.9 172.29 236.18 163.69 245.94C154.21 256.7 152.47 247.77 153.94 236.15C154.85 228.9 154.11 220.85 152.13 204.99C150.55 192.35 152.51 182.35 156.01 182.4" id="a1n0aQYoY1"></path><path d="M164.81 253.05C166.48 251.27 173.14 246.79 161.49 233.6C156.13 227.53 145.44 219.31 136.33 218.98C126.29 218.62 129.98 223.73 136.58 228.52C140.69 231.51 144.41 235.72 151.49 244.25C157.14 251.05 163.15 254.82 164.81 253.05" id="c12eceoT57"></path><path d="M150.17 223.63C150.17 223.63 153.04 209 149.57 191.46C148.13 184.16 154.13 177.34 162.72 181.25C178.63 188.47 173.56 222.14 173.37 222.15C168.36 227.92 150.17 223.63 150.17 223.63" id="d1nePSOttu"></path><path d="M120.98 290.44L107.12 291.4L110.81 381.45L114.66 381.4L120.98 290.44" id="drJCfitfw"></path><path d="M170.14 282.75L156.22 288.23L159.91 382.68L163.77 382.63L170.14 282.75" id="a3YevkVU0m"></path><path d="M89.54 286.68L75.68 287.63L79.36 377.5L83.22 377.45L89.54 286.68" id="b1AxnF5ByH"></path><path d="M112.1 182.2C124.68 168.65 180.88 170.17 184.83 182.33C188.77 194.49 185.06 269.66 173.45 288.57C162.95 305.68 125.99 294.4 115.21 295.76C104.42 297.12 69.98 288.59 69.98 288.59C69.98 288.59 56.95 280.99 67.96 273.6C72.1 272.6 105.2 264.6 109.34 263.6C109.34 263.6 99.52 195.75 112.1 182.2" id="c1HVtj4XpJ"></path></defs><g><g><g><use xlink:href="#h59ahuBV0N" opacity="1" fill="#2d3692" fill-opacity="1"></use><g><use xlink:href="#h59ahuBV0N" opacity="1" fill-opacity="0" stroke="#000000" stroke-width="1" stroke-opacity="0"></use></g></g><g><use xlink:href="#bkm83EoGw" opacity="1" fill="#f791a6" fill-opacity="1"></use><g><use xlink:href="#bkm83EoGw" opacity="1" fill-opacity="0" stroke="#000000" stroke-width="1" stroke-opacity="0"></use></g></g><g><use xlink:href="#b3xt5JREcl" opacity="1" fill="#f791a6" fill-opacity="1"></use><g><use xlink:href="#b3xt5JREcl" opacity="1" fill-opacity="0" stroke="#000000" stroke-width="1" stroke-opacity="0"></use></g></g><g><use xlink:href="#ehBuYxlRS" opacity="1" fill="#f36183" fill-opacity="1"></use><g><use xlink:href="#ehBuYxlRS" opacity="1" fill-opacity="0" stroke="#000000" stroke-width="1" stroke-opacity="0"></use></g></g><g><use xlink:href="#aiNo6T0WR" opacity="1" fill="#2d3692" fill-opacity="1"></use><g><use xlink:href="#aiNo6T0WR" opacity="1" fill-opacity="0" stroke="#000000" stroke-width="1" stroke-opacity="0"></use></g></g><g><use xlink:href="#b2fDgE8CBt" opacity="1" fill="#f791a6" fill-opacity="1"></use><g><use xlink:href="#b2fDgE8CBt" opacity="1" fill-opacity="0" stroke="#000000" stroke-width="1" stroke-opacity="0"></use></g></g><g><use xlink:href="#cSYAGYXMJ" opacity="1" fill="#f791a6" fill-opacity="1"></use><g><use xlink:href="#cSYAGYXMJ" opacity="1" fill-opacity="0" stroke="#000000" stroke-width="1" stroke-opacity="0"></use></g></g><g><use xlink:href="#bqqwfczxO" opacity="1" fill="#131112" fill-opacity="1"></use><g><use xlink:href="#bqqwfczxO" opacity="1" fill-opacity="0" stroke="#000000" stroke-width="1" stroke-opacity="0"></use></g></g><g><use xlink:href="#a6AxhShwU" opacity="1" fill="#e5e6e5" fill-opacity="1"></use><g><use xlink:href="#a6AxhShwU" opacity="1" fill-opacity="0" stroke="#000000" stroke-width="1" stroke-opacity="0"></use></g></g><g><use xlink:href="#e5o8AvMjb" opacity="1" fill="#e5e6e5" fill-opacity="1"></use><g><use xlink:href="#e5o8AvMjb" opacity="1" fill-opacity="0" stroke="#000000" stroke-width="1" stroke-opacity="0"></use></g></g><g><use xlink:href="#a9TLI8KD3" opacity="1" fill="#131112" fill-opacity="1"></use><g><use xlink:href="#a9TLI8KD3" opacity="1" fill-opacity="0" stroke="#000000" stroke-width="1" stroke-opacity="0"></use></g></g><g><use xlink:href="#a1IwodR74E" opacity="1" fill="#e5e6e5" fill-opacity="1"></use><g><use xlink:href="#a1IwodR74E" opacity="1" fill-opacity="0" stroke="#000000" stroke-width="1" stroke-opacity="0"></use></g></g><g><use xlink:href="#j1gajRTSVs" opacity="1" fill="#e5e6e5" fill-opacity="1"></use><g><use xlink:href="#j1gajRTSVs" opacity="1" fill-opacity="0" stroke="#000000" stroke-width="1" stroke-opacity="0"></use></g></g><g><use xlink:href="#k3YoCOgxTh" opacity="1" fill="#3350aa" fill-opacity="1"></use><g><use xlink:href="#k3YoCOgxTh" opacity="1" fill-opacity="0" stroke="#000000" stroke-width="1" stroke-opacity="0"></use></g></g><g><use xlink:href="#anQJhfkXJ" opacity="1" fill="#3350aa" fill-opacity="1"></use><g><use xlink:href="#anQJhfkXJ" opacity="1" fill-opacity="0" stroke="#000000" stroke-width="1" stroke-opacity="0"></use></g></g><g><use xlink:href="#b5uctVMVrR" opacity="1" fill="#f78fa4" fill-opacity="1"></use><g><use xlink:href="#b5uctVMVrR" opacity="1" fill-opacity="0" stroke="#000000" stroke-width="1" stroke-opacity="0"></use></g></g><g><use xlink:href="#a32MuAEi5f" opacity="1" fill="#7fd4d2" fill-opacity="1"></use><g><use xlink:href="#a32MuAEi5f" opacity="1" fill-opacity="0" stroke="#000000" stroke-width="1" stroke-opacity="0"></use></g></g><g><use xlink:href="#a4iCZvfP" opacity="1" fill="#f792a7" fill-opacity="1"></use><g><use xlink:href="#a4iCZvfP" opacity="1" fill-opacity="0" stroke="#000000" stroke-width="1" stroke-opacity="0"></use></g></g><g><use xlink:href="#atAuCMlKm" opacity="1" fill="#7fd4d2" fill-opacity="1"></use><g><use xlink:href="#atAuCMlKm" opacity="1" fill-opacity="0" stroke="#000000" stroke-width="1" stroke-opacity="0"></use></g></g><g><use xlink:href="#a3oOYFQ05n" opacity="1" fill="#2d3692" fill-opacity="1"></use><g><use xlink:href="#a3oOYFQ05n" opacity="1" fill-opacity="0" stroke="#000000" stroke-width="1" stroke-opacity="0"></use></g></g><g><use xlink:href="#g11KhI87WR" opacity="1" fill="#f791a6" fill-opacity="1"></use><g><use xlink:href="#g11KhI87WR" opacity="1" fill-opacity="0" stroke="#000000" stroke-width="1" stroke-opacity="0"></use></g></g><g><use xlink:href="#b1pCICxT9v" opacity="1" fill="#f791a6" fill-opacity="1"></use><g><use xlink:href="#b1pCICxT9v" opacity="1" fill-opacity="0" stroke="#000000" stroke-width="1" stroke-opacity="0"></use></g></g><g><use xlink:href="#b1n3zdeC8o" opacity="1" fill="#f791a6" fill-opacity="1"></use><g><use xlink:href="#b1n3zdeC8o" opacity="1" fill-opacity="0" stroke="#000000" stroke-width="1" stroke-opacity="0"></use></g></g><g><use xlink:href="#a27gSrrfH2" opacity="1" fill="#7fd4d2" fill-opacity="1"></use><g><use xlink:href="#a27gSrrfH2" opacity="1" fill-opacity="0" stroke="#000000" stroke-width="1" stroke-opacity="0"></use></g></g><g><use xlink:href="#a1hKTICG8h" opacity="1" fill="#f791a6" fill-opacity="1"></use><g><use xlink:href="#a1hKTICG8h" opacity="1" fill-opacity="0" stroke="#000000" stroke-width="1" stroke-opacity="0"></use></g></g><g><use xlink:href="#biU3QwFs" opacity="1" fill="#2d3692" fill-opacity="1"></use><g><use xlink:href="#biU3QwFs" opacity="1" fill-opacity="0" stroke="#000000" stroke-width="1" stroke-opacity="0"></use></g></g><g><use xlink:href="#baybP557v" opacity="1" fill="#2d3692" fill-opacity="1"></use><g><use xlink:href="#baybP557v" opacity="1" fill-opacity="0" stroke="#000000" stroke-width="1" stroke-opacity="0"></use></g></g><g><use xlink:href="#b5xc06U5fj" opacity="1" fill="#f791a6" fill-opacity="1"></use><g><use xlink:href="#b5xc06U5fj" opacity="1" fill-opacity="0" stroke="#000000" stroke-width="1" stroke-opacity="0"></use></g></g><g><use xlink:href="#e76fmxgtW" opacity="1" fill="#f791a6" fill-opacity="1"></use><g><use xlink:href="#e76fmxgtW" opacity="1" fill-opacity="0" stroke="#000000" stroke-width="1" stroke-opacity="0"></use></g></g><g><use xlink:href="#b126QrKXMX" opacity="1" fill="#f791a6" fill-opacity="1"></use><g><use xlink:href="#b126QrKXMX" opacity="1" fill-opacity="0" stroke="#000000" stroke-width="1" stroke-opacity="0"></use></g></g><g><use xlink:href="#b17xaNJfrj" opacity="1" fill="#2d3692" fill-opacity="1"></use><g><use xlink:href="#b17xaNJfrj" opacity="1" fill-opacity="0" stroke="#000000" stroke-width="1" stroke-opacity="0"></use></g></g><g><use xlink:href="#ff39Ntyfu" opacity="1" fill="#2d3692" fill-opacity="1"></use><g><use xlink:href="#ff39Ntyfu" opacity="1" fill-opacity="0" stroke="#000000" stroke-width="1" stroke-opacity="0"></use></g></g><g><use xlink:href="#boIAbpvE0" opacity="1" fill="#f791a6" fill-opacity="1"></use><g><use xlink:href="#boIAbpvE0" opacity="1" fill-opacity="0" stroke="#000000" stroke-width="1" stroke-opacity="0"></use></g></g><g><use xlink:href="#a402AWnOrh" opacity="1" fill="#f791a6" fill-opacity="1"></use><g><use xlink:href="#a402AWnOrh" opacity="1" fill-opacity="0" stroke="#000000" stroke-width="1" stroke-opacity="0"></use></g></g><g><use xlink:href="#eRoRwdFgt" opacity="1" fill="#131112" fill-opacity="1"></use><g><use xlink:href="#eRoRwdFgt" opacity="1" fill-opacity="0" stroke="#000000" stroke-width="1" stroke-opacity="0"></use></g></g><path></path><g><use xlink:href="#ibv7w6jPzX" opacity="1" fill="#131112" fill-opacity="1"></use><g><use xlink:href="#ibv7w6jPzX" opacity="1" fill-opacity="0" stroke="#000000" stroke-width="1" stroke-opacity="0"></use></g></g><path></path><g><use xlink:href="#f1RqS3ZJWz" opacity="1" fill="#3350aa" fill-opacity="1"></use><g><use xlink:href="#f1RqS3ZJWz" opacity="1" fill-opacity="0" stroke="#000000" stroke-width="1" stroke-opacity="0"></use></g></g><g><use xlink:href="#cnbLQ2ZQy" opacity="1" fill="#3350aa" fill-opacity="1"></use><g><use xlink:href="#cnbLQ2ZQy" opacity="1" fill-opacity="0" stroke="#000000" stroke-width="1" stroke-opacity="0"></use></g></g><g><use xlink:href="#c413m2z7Fq" opacity="1" fill="#f791a6" fill-opacity="1"></use><g><use xlink:href="#c413m2z7Fq" opacity="1" fill-opacity="0" stroke="#000000" stroke-width="1" stroke-opacity="0"></use></g></g><g><use xlink:href="#j3AhoDwz3" opacity="1" fill="#f791a6" fill-opacity="1"></use><g><use xlink:href="#j3AhoDwz3" opacity="1" fill-opacity="0" stroke="#000000" stroke-width="1" stroke-opacity="0"></use></g></g><g><use xlink:href="#g3GlmB1pvj" opacity="1" fill="#2d3692" fill-opacity="1"></use><g><use xlink:href="#g3GlmB1pvj" opacity="1" fill-opacity="0" stroke="#000000" stroke-width="1" stroke-opacity="0"></use></g></g><path></path><g><use xlink:href="#dpI5a66Tt" opacity="1" fill="#f791a6" fill-opacity="1"></use><g><use xlink:href="#dpI5a66Tt" opacity="1" fill-opacity="0" stroke="#000000" stroke-width="1" stroke-opacity="0"></use></g></g><g><use xlink:href="#f3PcgjsXjH" opacity="1" fill="#f791a6" fill-opacity="1"></use><g><use xlink:href="#f3PcgjsXjH" opacity="1" fill-opacity="0" stroke="#000000" stroke-width="1" stroke-opacity="0"></use></g></g><g><use xlink:href="#c3HVuZ013" opacity="1" fill="#f35e80" fill-opacity="1"></use><g><use xlink:href="#c3HVuZ013" opacity="1" fill-opacity="0" stroke="#000000" stroke-width="1" stroke-opacity="0"></use></g></g><g><use xlink:href="#cQ4B1LLHC" opacity="1" fill="#f791a6" fill-opacity="1"></use><g><use xlink:href="#cQ4B1LLHC" opacity="1" fill-opacity="0" stroke="#000000" stroke-width="1" stroke-opacity="0"></use></g></g><g><use xlink:href="#dWsvfEaTV" opacity="1" fill="#f791a6" fill-opacity="1"></use><g><use xlink:href="#dWsvfEaTV" opacity="1" fill-opacity="0" stroke="#000000" stroke-width="1" stroke-opacity="0"></use></g></g><g><use xlink:href="#a7Z0RhCnY" opacity="1" fill="#2d3692" fill-opacity="1"></use><g><use xlink:href="#a7Z0RhCnY" opacity="1" fill-opacity="0" stroke="#000000" stroke-width="1" stroke-opacity="0"></use></g></g><g><use xlink:href="#b110xL8UXT" opacity="1" fill="#f35e80" fill-opacity="1"></use><g><use xlink:href="#b110xL8UXT" opacity="1" fill-opacity="0" stroke="#000000" stroke-width="1" stroke-opacity="0"></use></g></g><g><use xlink:href="#a6pcKtSo24" opacity="1" fill="#f791a6" fill-opacity="1"></use><g><use xlink:href="#a6pcKtSo24" opacity="1" fill-opacity="0" stroke="#000000" stroke-width="1" stroke-opacity="0"></use></g></g><g><use xlink:href="#a4xTQPpCNj" opacity="1" fill="#f791a6" fill-opacity="1"></use><g><use xlink:href="#a4xTQPpCNj" opacity="1" fill-opacity="0" stroke="#000000" stroke-width="1" stroke-opacity="0"></use></g></g><g><use xlink:href="#cDC440hjH" opacity="1" fill="#f35e80" fill-opacity="1"></use><g><use xlink:href="#cDC440hjH" opacity="1" fill-opacity="0" stroke="#000000" stroke-width="1" stroke-opacity="0"></use></g></g><g><use xlink:href="#c525rFAjvP" opacity="1" fill="#f791a6" fill-opacity="1"></use><g><use xlink:href="#c525rFAjvP" opacity="1" fill-opacity="0" stroke="#000000" stroke-width="1" stroke-opacity="0"></use></g></g><g><use xlink:href="#b23D2dQ2yl" opacity="1" fill="#f791a6" fill-opacity="1"></use><g><use xlink:href="#b23D2dQ2yl" opacity="1" fill-opacity="0" stroke="#000000" stroke-width="1" stroke-opacity="0"></use></g></g><g><use xlink:href="#b1ickLXez" opacity="1" fill="#f791a6" fill-opacity="1"></use><g><use xlink:href="#b1ickLXez" opacity="1" fill-opacity="0" stroke="#000000" stroke-width="1" stroke-opacity="0"></use></g></g><g><use xlink:href="#c201KsafYI" opacity="1" fill="#2d3692" fill-opacity="1"></use><g><use xlink:href="#c201KsafYI" opacity="1" fill-opacity="0" stroke="#000000" stroke-width="1" stroke-opacity="0"></use></g></g><g><use xlink:href="#d3zA15X78c" opacity="1" fill="#f791a6" fill-opacity="1"></use><g><use xlink:href="#d3zA15X78c" opacity="1" fill-opacity="0" stroke="#000000" stroke-width="1" stroke-opacity="0"></use></g></g><g><use xlink:href="#d8NNaBLUm" opacity="1" fill="#f791a6" fill-opacity="1"></use><g><use xlink:href="#d8NNaBLUm" opacity="1" fill-opacity="0" stroke="#000000" stroke-width="1" stroke-opacity="0"></use></g></g><g><use xlink:href="#bekguKRrk" opacity="1" fill="#3350aa" fill-opacity="1"></use><g><use xlink:href="#bekguKRrk" opacity="1" fill-opacity="0" stroke="#000000" stroke-width="1" stroke-opacity="0"></use></g></g><g><use xlink:href="#d81kx1rfv" opacity="1" fill="#2d3692" fill-opacity="1"></use><g><use xlink:href="#d81kx1rfv" opacity="1" fill-opacity="0" stroke="#000000" stroke-width="1" stroke-opacity="0"></use></g></g><g><use xlink:href="#a23GMYvVcN" opacity="1" fill="#f791a6" fill-opacity="1"></use><g><use xlink:href="#a23GMYvVcN" opacity="1" fill-opacity="0" stroke="#000000" stroke-width="1" stroke-opacity="0"></use></g></g><g><use xlink:href="#a3D7YNqS9k" opacity="1" fill="#f791a6" fill-opacity="1"></use><g><use xlink:href="#a3D7YNqS9k" opacity="1" fill-opacity="0" stroke="#000000" stroke-width="1" stroke-opacity="0"></use></g></g><g><use xlink:href="#acNzM2DaE" opacity="1" fill="#f35e80" fill-opacity="1"></use><g><use xlink:href="#acNzM2DaE" opacity="1" fill-opacity="0" stroke="#000000" stroke-width="1" stroke-opacity="0"></use></g></g><g><use xlink:href="#ami0TxfPj" opacity="1" fill="#2d3692" fill-opacity="1"></use><g><use xlink:href="#ami0TxfPj" opacity="1" fill-opacity="0" stroke="#000000" stroke-width="1" stroke-opacity="0"></use></g></g><g><use xlink:href="#b1PWluY8iR" opacity="1" fill="#7fd4d2" fill-opacity="1"></use><g><use xlink:href="#b1PWluY8iR" opacity="1" fill-opacity="0" stroke="#000000" stroke-width="1" stroke-opacity="0"></use></g></g><path></path><g><use xlink:href="#b1HP7o5XzF" opacity="1" fill="#2d358c" fill-opacity="1"></use><g><use xlink:href="#b1HP7o5XzF" opacity="1" fill-opacity="0" stroke="#000000" stroke-width="1" stroke-opacity="0"></use></g></g><g><use xlink:href="#g2FEFdQB4W" opacity="1" fill="#12b1bc" fill-opacity="1"></use><g><use xlink:href="#g2FEFdQB4W" opacity="1" fill-opacity="0" stroke="#000000" stroke-width="1" stroke-opacity="0"></use></g></g><g><use xlink:href="#a7E6gJTEH2" opacity="1" fill="#f791a6" fill-opacity="1"></use><g><use xlink:href="#a7E6gJTEH2" opacity="1" fill-opacity="0" stroke="#000000" stroke-width="1" stroke-opacity="0"></use></g></g><g><use xlink:href="#a47qUCJVSp" opacity="1" fill="#2d3692" fill-opacity="1"></use><g><use xlink:href="#a47qUCJVSp" opacity="1" fill-opacity="0" stroke="#000000" stroke-width="1" stroke-opacity="0"></use></g></g><g><use xlink:href="#b3BGa5yhcL" opacity="1" fill="#2d3692" fill-opacity="1"></use><g><use xlink:href="#b3BGa5yhcL" opacity="1" fill-opacity="0" stroke="#000000" stroke-width="1" stroke-opacity="0"></use></g></g><g><use xlink:href="#j98QMKwLF" opacity="1" fill="#f791a6" fill-opacity="1"></use><g><use xlink:href="#j98QMKwLF" opacity="1" fill-opacity="0" stroke="#000000" stroke-width="1" stroke-opacity="0"></use></g></g><g><use xlink:href="#epqTYQQ4h" opacity="1" fill="#f791a6" fill-opacity="1"></use><g><use xlink:href="#epqTYQQ4h" opacity="1" fill-opacity="0" stroke="#000000" stroke-width="1" stroke-opacity="0"></use></g></g><g><use xlink:href="#h15JLjyb8T" opacity="1" fill="#2d3692" fill-opacity="1"></use><g><use xlink:href="#h15JLjyb8T" opacity="1" fill-opacity="0" stroke="#000000" stroke-width="1" stroke-opacity="0"></use></g></g><g><use xlink:href="#aXUN2dKgz" opacity="1" fill="#2d3692" fill-opacity="1"></use><g><use xlink:href="#aXUN2dKgz" opacity="1" fill-opacity="0" stroke="#000000" stroke-width="1" stroke-opacity="0"></use></g></g><g><use xlink:href="#aAgS54XCv" opacity="1" fill="#2d3692" fill-opacity="1"></use><g><use xlink:href="#aAgS54XCv" opacity="1" fill-opacity="0" stroke="#000000" stroke-width="1" stroke-opacity="0"></use></g></g><g><use xlink:href="#f4RK9QFhdq" opacity="1" fill="#f791a6" fill-opacity="1"></use><g><use xlink:href="#f4RK9QFhdq" opacity="1" fill-opacity="0" stroke="#000000" stroke-width="1" stroke-opacity="0"></use></g></g><g><use xlink:href="#a4IivTuOw" opacity="1" fill="#f791a6" fill-opacity="1"></use><g><use xlink:href="#a4IivTuOw" opacity="1" fill-opacity="0" stroke="#000000" stroke-width="1" stroke-opacity="0"></use></g></g><g><use xlink:href="#d2BJTAiOtS" opacity="1" fill="#131112" fill-opacity="1"></use><g><use xlink:href="#d2BJTAiOtS" opacity="1" fill-opacity="0" stroke="#000000" stroke-width="1" stroke-opacity="0"></use></g></g><path></path><g><use xlink:href="#bpfGl3ygE" opacity="1" fill="#131112" fill-opacity="1"></use><g><use xlink:href="#bpfGl3ygE" opacity="1" fill-opacity="0" stroke="#000000" stroke-width="1" stroke-opacity="0"></use></g></g><path></path><g><use xlink:href="#b3KrPabkM" opacity="1" fill="#f791a6" fill-opacity="1"></use><g><use xlink:href="#b3KrPabkM" opacity="1" fill-opacity="0" stroke="#000000" stroke-width="1" stroke-opacity="0"></use></g></g><g><use xlink:href="#f2eHfoJCh5" opacity="1" fill="#f35e80" fill-opacity="1"></use><g><use xlink:href="#f2eHfoJCh5" opacity="1" fill-opacity="0" stroke="#000000" stroke-width="1" stroke-opacity="0"></use></g></g><g><use xlink:href="#kluUEybS" opacity="1" fill="#ffffff" fill-opacity="1"></use><g><use xlink:href="#kluUEybS" opacity="1" fill-opacity="0" stroke="#000000" stroke-width="1" stroke-opacity="0"></use></g></g><g><use xlink:href="#d32YfGmpt7" opacity="1" fill="#2d3692" fill-opacity="1"></use><g><use xlink:href="#d32YfGmpt7" opacity="1" fill-opacity="0" stroke="#000000" stroke-width="1" stroke-opacity="0"></use></g></g><g><use xlink:href="#b5yP3D4g4" opacity="1" fill="#2d3692" fill-opacity="1"></use><g><use xlink:href="#b5yP3D4g4" opacity="1" fill-opacity="0" stroke="#000000" stroke-width="1" stroke-opacity="0"></use></g></g><g><use xlink:href="#a1n0aQYoY1" opacity="1" fill="#f791a6" fill-opacity="1"></use><g><use xlink:href="#a1n0aQYoY1" opacity="1" fill-opacity="0" stroke="#000000" stroke-width="1" stroke-opacity="0"></use></g></g><g><use xlink:href="#c12eceoT57" opacity="1" fill="#f791a6" fill-opacity="1"></use><g><use xlink:href="#c12eceoT57" opacity="1" fill-opacity="0" stroke="#000000" stroke-width="1" stroke-opacity="0"></use></g></g><g><use xlink:href="#d1nePSOttu" opacity="1" fill="#2d3692" fill-opacity="1"></use><g><use xlink:href="#d1nePSOttu" opacity="1" fill-opacity="0" stroke="#000000" stroke-width="1" stroke-opacity="0"></use></g></g><path></path><g><use xlink:href="#drJCfitfw" opacity="1" fill="#f791a6" fill-opacity="1"></use><g><use xlink:href="#drJCfitfw" opacity="1" fill-opacity="0" stroke="#000000" stroke-width="1" stroke-opacity="0"></use></g></g><g><use xlink:href="#a3YevkVU0m" opacity="1" fill="#f791a6" fill-opacity="1"></use><g><use xlink:href="#a3YevkVU0m" opacity="1" fill-opacity="0" stroke="#000000" stroke-width="1" stroke-opacity="0"></use></g></g><g><use xlink:href="#b1AxnF5ByH" opacity="1" fill="#f791a6" fill-opacity="1"></use><g><use xlink:href="#b1AxnF5ByH" opacity="1" fill-opacity="0" stroke="#000000" stroke-width="1" stroke-opacity="0"></use></g></g><g><use xlink:href="#c1HVtj4XpJ" opacity="1" fill="#7fd4d2" fill-opacity="1"></use><g><use xlink:href="#c1HVtj4XpJ" opacity="1" fill-opacity="0" stroke="#000000" stroke-width="1" stroke-opacity="0"></use></g></g><path></path><path></path><path></path><path></path><path></path><path></path><path></path><path></path><path></path><path></path></g></g></svg>